<?xml version="1.0" encoding="UTF-8"?>
<svg xmlns="http://www.w3.org/2000/svg" xmlns:xlink="http://www.w3.org/1999/xlink" width="24px" height="24px" viewBox="0 0 24 24" version="1.1">
<g id="surface1">
<path style=" stroke:none;fill-rule:evenodd;fill:rgb(79.607844%,85.490197%,86.666667%);fill-opacity:1;" d="M 6.675781 2.363281 C 5.351562 2.4375 4.464844 2.789062 3.675781 3.546875 C 2.945312 4.25 2.566406 5.035156 2.410156 6.183594 C 2.347656 6.617188 2.34375 7.09375 2.347656 11.757812 C 2.351562 16.917969 2.367188 17.507812 2.496094 18.1875 C 2.605469 18.773438 2.863281 19.394531 3.167969 19.804688 L 3.296875 19.980469 L 3.601562 19.980469 C 3.886719 19.980469 3.914062 19.988281 4.023438 20.085938 C 4.089844 20.144531 4.042969 20.085938 3.917969 19.949219 C 3.378906 19.351562 3.085938 18.710938 2.957031 17.832031 C 2.929688 17.621094 2.910156 16.226562 2.898438 13.179688 C 2.878906 8.59375 2.914062 6.503906 3.019531 5.929688 C 3.25 4.671875 4.097656 3.648438 5.285156 3.203125 C 5.914062 2.964844 5.957031 2.960938 9.113281 2.921875 C 12.648438 2.878906 17.589844 2.929688 18.054688 3.011719 C 19.34375 3.246094 20.382812 4.101562 20.816406 5.28125 C 21.101562 6.070312 21.121094 6.566406 21.101562 12.75 C 21.085938 18.113281 21.089844 17.964844 20.886719 18.589844 C 20.761719 18.96875 20.480469 19.492188 20.261719 19.75 L 20.070312 19.976562 L 20.394531 19.984375 L 20.71875 19.988281 L 20.921875 19.6875 C 21.234375 19.207031 21.433594 18.679688 21.546875 18.019531 C 21.648438 17.425781 21.679688 15.511719 21.664062 10.929688 C 21.652344 6.894531 21.644531 6.390625 21.585938 6.039062 C 21.394531 4.859375 20.914062 3.984375 20.105469 3.320312 C 19.355469 2.710938 18.53125 2.433594 17.238281 2.363281 C 16.492188 2.320312 7.429688 2.324219 6.675781 2.363281 M 5.886719 6.09375 L 5.886719 6.414062 L 6.75 6.84375 C 7.226562 7.082031 7.609375 7.289062 7.597656 7.304688 C 7.589844 7.320312 7.199219 7.523438 6.734375 7.761719 L 5.890625 8.195312 L 5.886719 8.523438 C 5.886719 8.703125 5.898438 8.851562 5.910156 8.851562 C 5.921875 8.851562 6.453125 8.5625 7.089844 8.210938 L 8.25 7.570312 L 8.25 7.03125 L 7.113281 6.402344 C 6.484375 6.058594 5.953125 5.773438 5.929688 5.773438 C 5.902344 5.773438 5.886719 5.878906 5.886719 6.09375 M 9.0625 9.289062 C 9.046875 9.300781 9.039062 9.429688 9.039062 9.570312 L 9.039062 9.824219 L 11.738281 9.824219 L 11.738281 9.261719 L 10.414062 9.261719 C 9.683594 9.261719 9.078125 9.273438 9.0625 9.289062 "/>
<path style=" stroke:none;fill-rule:evenodd;fill:rgb(12.156863%,12.156863%,12.156863%);fill-opacity:1;" d="M 8.34375 2.925781 C 6.0625 2.953125 5.910156 2.964844 5.28125 3.203125 C 4.308594 3.566406 3.566406 4.308594 3.203125 5.285156 C 3.003906 5.808594 2.96875 6.113281 2.921875 7.535156 C 2.867188 9.261719 2.898438 17.410156 2.957031 17.832031 C 3.085938 18.710938 3.378906 19.351562 3.917969 19.949219 C 4.042969 20.085938 4.089844 20.144531 4.023438 20.085938 C 3.914062 19.988281 3.886719 19.980469 3.601562 19.980469 L 3.296875 19.980469 L 3.167969 19.804688 C 2.863281 19.390625 2.605469 18.765625 2.496094 18.175781 C 2.382812 17.574219 2.363281 16.914062 2.339844 12.730469 C 2.320312 8.84375 2.347656 6.550781 2.421875 6.074219 C 2.4375 5.980469 2.429688 5.960938 2.40625 6 C 2.285156 6.191406 2.273438 6.597656 2.257812 11.867188 C 2.242188 17.472656 2.253906 17.878906 2.421875 18.621094 C 2.808594 20.339844 4.109375 21.570312 5.867188 21.878906 C 6.523438 21.996094 7.863281 22.019531 12.710938 22 C 15.976562 21.988281 17.523438 21.96875 17.757812 21.941406 C 18.972656 21.78125 19.792969 21.390625 20.535156 20.617188 C 21.144531 19.980469 21.476562 19.296875 21.664062 18.28125 C 21.722656 17.976562 21.730469 17.417969 21.742188 12.601562 C 21.753906 7.621094 21.742188 6.414062 21.679688 6.414062 C 21.667969 6.414062 21.660156 8.441406 21.667969 10.921875 C 21.679688 15.5 21.648438 17.433594 21.546875 18.019531 C 21.433594 18.679688 21.234375 19.207031 20.921875 19.6875 L 20.71875 19.988281 L 20.394531 19.984375 L 20.070312 19.976562 L 20.261719 19.75 C 20.480469 19.492188 20.761719 18.96875 20.886719 18.589844 C 21.089844 17.964844 21.085938 18.113281 21.101562 12.75 C 21.121094 6.566406 21.101562 6.070312 20.816406 5.28125 C 20.382812 4.101562 19.34375 3.246094 18.054688 3.011719 C 17.527344 2.914062 12.84375 2.875 8.34375 2.925781 M 5.886719 6.09375 L 5.886719 6.414062 L 6.75 6.84375 C 7.226562 7.082031 7.609375 7.289062 7.597656 7.304688 C 7.589844 7.320312 7.199219 7.523438 6.734375 7.761719 L 5.890625 8.195312 L 5.886719 8.523438 C 5.886719 8.703125 5.898438 8.851562 5.910156 8.851562 C 5.921875 8.851562 6.453125 8.5625 7.089844 8.210938 L 8.25 7.570312 L 8.25 7.03125 L 7.113281 6.402344 C 6.484375 6.058594 5.953125 5.773438 5.929688 5.773438 C 5.902344 5.773438 5.886719 5.878906 5.886719 6.09375 M 21.589844 6.09375 C 21.601562 6.21875 21.625 6.335938 21.640625 6.355469 C 21.691406 6.40625 21.675781 6.191406 21.617188 6.019531 L 21.570312 5.867188 L 21.589844 6.09375 M 9.0625 9.289062 C 9.046875 9.300781 9.039062 9.429688 9.039062 9.570312 L 9.039062 9.824219 L 11.738281 9.824219 L 11.738281 9.261719 L 10.414062 9.261719 C 9.683594 9.261719 9.078125 9.273438 9.0625 9.289062 "/>
</g>
</svg>
